<?xml version="1.0" encoding="UTF-8"?>
<svg width="10px" height="10px" viewBox="0 0 10 10" version="1.1" xmlns="http://www.w3.org/2000/svg" xmlns:xlink="http://www.w3.org/1999/xlink">
    <title>2708698A-0167-4FD4-90E3-EA6694F51C98</title>
    <g id="To-Do" stroke="none" stroke-width="1" fill="none" fill-rule="evenodd">
        <g id="1280px-–-#1-Simple-status" transform="translate(-998.000000, -174.000000)" stroke="#2B44FF">
            <g id="Group-8" transform="translate(268.000000, 165.000000)">
                <g id="Actions" transform="translate(700.000000, 5.000000)">
                    <g id="icon-edit" transform="translate(26.000000, 0.000000)">
                        <g id="Group-9" transform="translate(5.500000, 5.500000)">
                            <path d="M6.62624293,0.362247413 C6.14467132,-0.120749138 5.30431688,-0.120749138 4.8221463,0.362247413 L0.543705986,4.6480168 C0.502976049,4.68881651 0.473626536,4.74041614 0.459850233,4.79621574 L0.00942504556,6.60280284 C-0.0175285893,6.71140206 0.0142168029,6.82660124 0.0932807986,6.90640067 C0.153776735,6.96700024 0.235236609,7 0.318493392,7 C0.344249088,7 0.370004784,6.99700002 0.395760479,6.99040007 L2.19985711,6.5386033 C2.25616026,6.52480339 2.30707268,6.4954036 2.34780262,6.4546039 L6.62624293,2.16883451 C6.86702873,1.92763623 7,1.60663852 7,1.26524096 C7,0.923843401 6.8676277,0.60344569 6.62624293,0.362247413 Z" id="Path" fill-rule="nonzero"></path>
                            <line x1="4.375" y1="0.875" x2="6.125" y2="2.625" id="Line-2" stroke-linejoin="round"></line>
                        </g>
                    </g>
                </g>
            </g>
        </g>
    </g>
</svg>