<?xml version="1.0" encoding="UTF-8"?>
<svg width="106px" height="35px" viewBox="0 0 106 35" version="1.1" xmlns="http://www.w3.org/2000/svg" xmlns:xlink="http://www.w3.org/1999/xlink">
    <title>C6B735D1-2B78-446A-9D53-08371AB5C812</title>
    <g id="To-Do" stroke="none" stroke-width="1" fill="none" fill-rule="evenodd">
        <g id="1280px-–-#0-Empty-state" transform="translate(-587.000000, -30.000000)" fill="#191847" fill-rule="nonzero">
            <g id="Group-2" transform="translate(587.500000, 30.000000)">
                <path d="M28.2790286,0.883757112 C30.4465858,-0.752605736 31.5941341,2.49880744 30.6662707,4.06088988 C30.1764761,4.88537813 29.46644,5.67004406 28.718244,6.43520825 L28.0718347,7.08676854 L28.0718347,7.08676854 C29.7642086,8.25475844 31.2084139,9.72387345 32.2334033,11.5262316 C35.5358163,17.332805 33.9472199,25.2632686 29.4331079,29.9584312 C24.5019042,35.0875135 17.8046315,35.8010079 11.8793957,32.1414923 C6.4284508,28.7753266 2.63659668,22.3989596 3.24321913,15.8294262 C1.39552505,17.0224709 0.862817312,15.4119428 1.01482076,13.9691976 L1.04638651,13.7308031 C1.05894969,13.6521958 1.0735181,13.5746158 1.08998367,13.4985726 L1.14496381,13.2755632 L1.14496381,13.2755632 L1.21067849,13.0648317 C1.25792236,12.9291159 1.3118903,12.8036235 1.37171774,12.6924302 C1.88414161,11.7398521 2.57685512,10.8189987 3.28092834,9.93729109 L4.32444172,8.64501664 L4.32444172,8.64501664 C7.13988723,5.12794947 10.4682719,3.46145948 15.0173219,3.43641361 C17.8513608,3.40824485 20.9673602,3.87287937 23.8360647,4.92687939 C25.2208755,3.44547193 26.7128527,2.06285181 28.2790286,0.883757112 Z M17.9882879,7.46566895 L17.4386986,7.40248221 L17.4386986,7.40248221 L16.8906554,7.34829719 C13.7002561,7.0627782 10.6415348,7.34973544 8.63789222,10.1869034 C6.93396951,12.5997605 6.20985647,15.7577324 6.59695704,18.6909176 C7.34394983,24.3522248 12.9615458,30.9583878 18.9275942,31.2930633 C25.556846,31.6656207 30.7196298,25.0319073 30.7656985,18.7989279 C30.7974911,14.5164345 28.627535,11.7083197 25.5764925,9.92198726 C24.8465094,10.9111202 24.1817629,11.9527383 23.534779,13.0079385 L22.3791373,14.9135647 C21.2221707,16.8170534 20.0304661,18.6889209 18.5271566,20.3022848 C15.1378965,23.9401329 12.195117,22.549698 9.54185708,18.947334 L9.3122759,18.6293236 L9.3122759,18.6293236 L9.05258138,18.2533262 L9.05258138,18.2533262 L8.8804635,17.9896787 L8.8804635,17.9896787 L8.71341448,17.7175079 C8.68619821,17.6715246 8.65934527,17.6252526 8.63293171,17.5787253 L8.48033148,17.2967634 L8.48033148,17.2967634 L8.34192744,17.01027 C7.8215716,15.8573622 7.72954681,14.6340181 9.1173218,13.8000853 C10.3925832,13.0336433 11.4075475,13.6017971 12.2641211,14.5468093 L12.4840491,14.8012532 C12.5201273,14.8448755 12.5559228,14.8890526 12.591444,14.9337061 L12.8013469,15.2067119 L12.8013469,15.2067119 L13.0050688,15.4873694 L13.0050688,15.4873694 L13.3063575,15.9239291 L13.8403389,16.7205432 C14.0695787,17.0577065 14.2889853,17.3634523 14.5023469,17.6021764 C15.8057087,16.3477877 16.8105892,14.8174406 17.7643782,13.2444346 L18.6414628,11.7804917 C19.2605582,10.7482158 19.8905249,9.72855792 20.6007376,8.78694148 C20.7708419,8.5614084 20.9436536,8.33612344 21.1190801,8.11139302 C20.0909936,7.83126964 19.0361311,7.61973911 17.9882879,7.46566895 Z M58.7315341,13.7386364 C60.0553977,13.7386364 61.1988636,14.0213068 62.1619318,14.5866477 C63.125,15.1519886 63.8678977,15.9417614 64.390625,16.9559659 C64.9133523,17.9701705 65.1747159,19.1534091 65.1747159,20.5056818 C65.1747159,21.8465909 64.9133523,23.0241477 64.390625,24.0383523 C63.8678977,25.0525568 63.125,25.8423295 62.1619318,26.4076705 C61.1988636,26.9730114 60.0553977,27.2556818 58.7315341,27.2556818 C57.4076705,27.2556818 56.2642045,26.9730114 55.3011364,26.4076705 C54.3380682,25.8423295 53.5951705,25.0525568 53.0724432,24.0383523 C52.5497159,23.0241477 52.2883523,21.8465909 52.2883523,20.5056818 C52.2883523,19.1534091 52.5497159,17.9701705 53.0724432,16.9559659 C53.5951705,15.9417614 54.3380682,15.1519886 55.3011364,14.5866477 C56.2642045,14.0213068 57.4076705,13.7386364 58.7315341,13.7386364 Z M98.4559659,13.7386364 C99.7798295,13.7386364 100.923295,14.0213068 101.886364,14.5866477 C102.849432,15.1519886 103.59233,15.9417614 104.115057,16.9559659 C104.637784,17.9701705 104.899148,19.1534091 104.899148,20.5056818 C104.899148,21.8465909 104.637784,23.0241477 104.115057,24.0383523 C103.59233,25.0525568 102.849432,25.8423295 101.886364,26.4076705 C100.923295,26.9730114 99.7798295,27.2556818 98.4559659,27.2556818 C97.1321023,27.2556818 95.9886364,26.9730114 95.0255682,26.4076705 C94.0625,25.8423295 93.3196023,25.0525568 92.796875,24.0383523 C92.2741477,23.0241477 92.0127841,21.8465909 92.0127841,20.5056818 C92.0127841,19.1534091 92.2741477,17.9701705 92.796875,16.9559659 C93.3196023,15.9417614 94.0625,15.1519886 95.0255682,14.5866477 C95.9886364,14.0213068 97.1321023,13.7386364 98.4559659,13.7386364 Z M90.0667614,9.54545455 L90.0667614,27 L86.4872159,27 L86.4872159,24.9034091 L86.3338068,24.9034091 L86.2260795,25.1210795 C86.070625,25.410625 85.8678977,25.6974432 85.6178977,25.9815341 C85.3053977,26.3366477 84.9034091,26.6306818 84.4119318,26.8636364 C83.9204545,27.0965909 83.3224432,27.2130682 82.6178977,27.2130682 C81.6235795,27.2130682 80.7258523,26.9559659 79.9247159,26.4417614 C79.1235795,25.9275568 78.4872159,25.1690341 78.015625,24.1661932 C77.5440341,23.1633523 77.3082386,21.9318182 77.3082386,20.4715909 C77.3082386,18.9715909 77.5511364,17.7230114 78.0369318,16.7258523 C78.5227273,15.7286932 79.1676136,14.9815341 79.9715909,14.484375 C80.7755682,13.9872159 81.6548295,13.7386364 82.609375,13.7386364 C83.3423295,13.7386364 83.9545455,13.8622159 84.4460227,14.109375 C84.9375,14.3565341 85.3352273,14.6619318 85.6392045,15.0255682 C85.8823864,15.3164773 86.0792045,15.6055682 86.2296591,15.8928409 L86.3338068,16.1079545 L86.4446023,16.1079545 L86.4446023,9.54545455 L90.0667614,9.54545455 Z M48.6292614,10.7727273 L48.6292614,13.9090909 L51.0923295,13.9090909 L51.0923295,16.6363636 L48.6292614,16.6363636 L48.6292614,22.9772727 L48.6334701,23.1379419 C48.6559168,23.5503998 48.7681503,23.8349116 48.9701705,23.9914773 C49.1974432,24.1676136 49.4928977,24.2556818 49.8565341,24.2556818 C50.0269886,24.2556818 50.1974432,24.2400568 50.3678977,24.2088068 L50.7599432,24.1363636 L51.3309659,26.8380682 L51.0773295,26.9110227 L51.0773295,26.9110227 L50.7527841,26.9935227 C50.6927841,27.0080682 50.6298295,27.0230114 50.5639205,27.0383523 C50.3002841,27.0997159 49.9911932,27.1419886 49.6366477,27.1651705 L49.3622159,27.1789773 L49.0837271,27.1860501 L48.8131957,27.182369 C47.7469852,27.1472345 46.8717532,26.8605925 46.1875,26.3224432 C45.4424242,25.7364583 45.0475253,24.8646402 45.002803,23.7069886 L44.9985795,23.4545455 L44.9985795,16.6363636 L43.2088068,16.6363636 L43.2088068,13.9090909 L44.9985795,13.9090909 L44.9985795,10.7727273 L48.6292614,10.7727273 Z M58.7485795,16.5085227 C57.8338068,16.5085227 57.1434659,16.8849432 56.6775568,17.6377841 C56.2116477,18.390625 55.9786932,19.3380682 55.9786932,20.4801136 C55.9786932,21.6221591 56.2116477,22.5681818 56.6775568,23.3181818 C57.1434659,24.0681818 57.8338068,24.4431818 58.7485795,24.4431818 C59.6463068,24.4431818 60.3267045,24.0681818 60.7897727,23.3181818 C61.2528409,22.5681818 61.484375,21.6221591 61.484375,20.4801136 C61.484375,19.3380682 61.2528409,18.390625 60.7897727,17.6377841 C60.3267045,16.8849432 59.6463068,16.5085227 58.7485795,16.5085227 Z M98.4730114,16.5085227 C97.5582386,16.5085227 96.8678977,16.8849432 96.4019886,17.6377841 C95.9360795,18.390625 95.703125,19.3380682 95.703125,20.4801136 C95.703125,21.6221591 95.9360795,22.5681818 96.4019886,23.3181818 C96.8678977,24.0681818 97.5582386,24.4431818 98.4730114,24.4431818 C99.3707386,24.4431818 100.051136,24.0681818 100.514205,23.3181818 C100.977273,22.5681818 101.208807,21.6221591 101.208807,20.4801136 C101.208807,19.3380682 100.977273,18.390625 100.514205,17.6377841 C100.051136,16.8849432 99.3707386,16.5085227 98.4730114,16.5085227 Z M83.7684659,16.6278409 C82.8707386,16.6278409 82.1875,16.9815341 81.71875,17.6889205 C81.25,18.3963068 81.015625,19.3181818 81.015625,20.4545455 C81.015625,21.5965909 81.2514205,22.5269886 81.7230114,23.2457386 C82.1946023,23.9644886 82.8764205,24.3238636 83.7684659,24.3238636 C84.6434659,24.3238636 85.3210227,23.9701705 85.8011364,23.2627841 C86.28125,22.5553977 86.5213068,21.6193182 86.5213068,20.4545455 C86.5213068,19.2840909 86.2826705,18.3536932 85.8053977,17.6633523 C85.328125,16.9730114 84.6491477,16.6278409 83.7684659,16.6278409 Z M75.2002841,18.3920455 L75.2002841,21.2727273 L67.2400568,21.2727273 L67.2400568,18.3920455 L75.2002841,18.3920455 Z" id="Shape"></path>
            </g>
        </g>
    </g>
</svg>