<?xml version="1.0" encoding="UTF-8"?>
<svg width="100px" height="80px" viewBox="0 0 100 80" version="1.1" xmlns="http://www.w3.org/2000/svg" xmlns:xlink="http://www.w3.org/1999/xlink">
    <title>EF35B03A-D56F-4674-8CE6-7D018B49EDF5</title>
    <g id="To-Do" stroke="none" stroke-width="1" fill="none" fill-rule="evenodd">
        <g id="1280px-–-#0-Empty-state" transform="translate(-120.000000, -194.000000)" fill="#E8ECF0">
            <path d="M131.241749,257.795845 C131.784038,257.633773 131.901909,257.978862 131.89458,258.489826 L131.883397,258.736192 L131.883397,258.736192 L131.808541,259.542061 C131.775235,259.947667 131.770176,260.332114 131.892649,260.582158 C132.191048,261.19169 132.800836,261.403962 133.464799,261.535779 L133.830787,261.601604 L133.830787,261.601604 L134.198246,261.662897 C134.502496,261.715259 134.798616,261.7748 135.062448,261.871273 L135.233717,261.938375 L135.233717,261.938375 L135.417158,262.019101 L135.417158,262.019101 L135.608433,262.112285 L135.608433,262.112285 L135.803207,262.216763 L135.803207,262.216763 L135.997145,262.33137 L135.997145,262.33137 L136.18591,262.454939 L136.18591,262.454939 L136.365166,262.586306 C137.057396,263.125817 137.417367,263.82451 136.196372,264.346803 C135.49265,264.647835 134.513375,264.504865 133.55654,264.299919 L132.43818,264.048686 C132.081698,263.971325 131.747877,263.908497 131.455791,263.884653 C130.419158,263.800347 131.021221,264.889811 131.459224,265.212089 C131.857782,265.505716 132.381676,265.57846 132.913441,265.609803 L133.59223,265.641418 C133.813774,265.653771 134.027517,265.672648 134.224214,265.712177 C136.895727,266.249053 136.286796,268.123329 133.764082,268.032125 L133.401114,268.014346 L133.401114,268.014346 L132.247418,267.93158 L132.247418,267.93158 L131.952112,267.918966 L131.952112,267.918966 L131.672497,267.918768 C130.676299,267.945813 130.001322,268.305878 129.700345,269.907933 L129.652992,270.238091 L129.652992,270.238091 L129.568023,270.884931 L129.568023,270.884931 L129.49577,271.352017 L129.49577,271.352017 L129.436126,271.68038 L129.436126,271.68038 L129.365838,272.013398 C129.099744,273.178182 128.615041,274.28794 127.669812,273.866866 C126.718384,273.443085 126.849718,272.5704 127.228917,271.586433 L127.343282,271.302563 L127.343282,271.302563 L127.530657,270.869231 L127.530657,270.869231 L127.797131,270.263768 L127.797131,270.263768 L127.966072,269.853419 L127.966072,269.853419 L128.065447,269.584536 C128.435597,268.518986 128.448047,267.585115 127.040659,267.212441 C125.726879,266.864564 125.362894,267.481407 125.203702,268.34566 L125.163148,268.598702 L125.163148,268.598702 L125.129877,268.861491 L125.129877,268.861491 L125.053227,269.536705 L125.053227,269.536705 L125.015042,269.804329 C124.993748,269.936705 124.968669,270.066461 124.937634,270.191508 C124.510696,271.910967 123.335566,272.335563 123.174176,270.303788 C123.154675,270.057541 123.17622,269.792856 123.215883,269.51993 L123.270709,269.189116 L123.270709,269.189116 L123.397327,268.519418 C123.557756,267.629754 123.622,266.781004 122.838806,266.307301 C122.727398,266.239856 122.57265,266.181319 122.392379,266.12592 L122.044176,266.028345 L122.044176,266.028345 L121.404041,265.860476 L121.404041,265.860476 L121.147013,265.785032 C120.302629,265.521339 119.620007,265.12324 120.239403,264.221494 C120.600861,263.694933 121.225207,263.700641 121.88395,263.797784 L122.605238,263.918834 C123.139957,264.005029 123.642082,264.045122 123.986466,263.797665 C124.669035,263.307003 124.504241,262.983262 124.070496,262.753583 L123.916747,262.680407 L123.916747,262.680407 L123.747835,262.613599 L123.747835,262.613599 L123.568523,262.552559 L123.568523,262.552559 L123.38357,262.496687 L123.38357,262.496687 L123.173682,262.438999 L122.732943,262.326059 L122.732943,262.326059 L122.493979,262.259877 C122.459421,262.249251 122.427819,262.238787 122.399659,262.228424 C120.675117,261.594213 121.217279,259.995081 122.91931,259.914991 C123.080032,259.907422 123.248313,259.924379 123.419843,259.948641 L123.939871,260.026121 C124.287307,260.069424 124.630498,260.073064 124.934963,259.899279 C125.206201,259.744602 125.362268,259.487076 125.494141,259.209295 L125.646599,258.871523 C125.748259,258.646907 125.857725,258.430474 126.021577,258.264509 C126.7673,257.508746 127.092965,257.765354 127.317451,258.322089 L127.38208,258.497402 L127.38208,258.497402 L127.471826,258.784786 L127.471826,258.784786 L127.62285,259.308912 C127.765608,259.783441 127.938115,260.227848 128.249746,260.397834 C129.252236,260.944435 129.67664,260.436268 129.999365,259.72505 L130.154459,259.356463 L130.154459,259.356463 L130.30584,258.977693 L130.30584,258.977693 L130.411233,258.731206 C130.610728,258.289087 130.851325,257.912506 131.241749,257.795845 Z M171.339436,214.211885 L171.483166,214.226453 C171.615678,214.247007 171.726856,214.304897 171.832395,214.374431 L172.040606,214.521411 L172.040606,214.521411 L172.147792,214.592272 C172.371249,214.728849 172.582899,214.913567 172.787743,215.111575 L173.386858,215.710617 C173.452269,215.773862 173.51748,215.834711 173.582675,215.891874 C174.011975,216.26863 174.433004,216.562417 174.900272,216.862615 C174.958351,216.899951 175.052632,216.946384 175.156795,216.993339 L175.472613,217.1272 L175.472613,217.1272 L175.713009,217.221646 L175.713009,217.221646 C175.72622,217.22671 175.729058,217.261853 175.727364,217.310476 L175.70885,217.564249 C175.706695,217.615966 175.708766,217.656265 175.720903,217.668549 C176.221097,217.366398 176.39441,217.422199 176.587609,217.569123 L176.776221,217.718755 C176.870757,217.789789 176.985119,217.862595 177.141502,217.920097 C177.190645,217.938131 177.262243,217.955466 177.347524,217.97299 L177.953207,218.087481 C178.215496,218.142035 178.45363,218.208844 178.530523,218.301756 C179.021774,218.897777 179.789371,219.295713 180.572098,219.628263 L181.093291,219.841733 L181.093291,219.841733 L181.601767,220.044566 C181.767229,220.111375 181.927704,220.177868 182.080327,220.245501 C183.403563,220.831943 184.40426,221.409334 185.551565,222.260524 C186.057415,222.635737 186.562707,222.83075 187.084825,222.998629 L187.882797,223.249231 C188.063895,223.308902 188.247828,223.374061 188.435241,223.45038 C189.227678,223.772954 190.024627,224.250237 190.786545,224.741097 L191.898208,225.469928 L191.898208,225.469928 C193.012057,226.198927 194.030797,227.069351 195.140511,227.803252 C195.532809,228.062828 195.94016,228.260407 196.351998,228.444053 L197.17853,228.80701 C197.453948,228.931296 197.728231,229.063632 197.998248,229.218256 C198.771044,229.660917 199.610448,230.242103 200.380231,230.807484 L201.12176,231.361882 L201.12176,231.361882 C201.255667,231.463351 201.46155,231.85526 201.649333,232.274477 L201.78537,232.589898 L201.78537,232.589898 L201.906175,232.89089 L201.906175,232.89089 L202.003303,233.152785 L202.003303,233.152785 L202.06831,233.350914 C202.091376,233.429926 202.099229,233.475774 202.087121,233.474583 C202.204613,233.486103 202.303315,233.24 202.37066,233.014379 L202.427087,232.805887 L202.427087,232.805887 L202.459817,232.67285 C202.463143,232.660399 202.465364,232.653667 202.466423,232.653941 L202.643103,232.70942 L202.643103,232.70942 L202.858234,232.788645 L202.858234,232.788645 L203.102963,232.889779 C203.23125,232.945516 203.367317,233.00878 203.506181,233.078535 L203.786164,233.226395 C204.675245,233.720089 205.543372,234.446531 205.125299,235.143021 C206.648571,234.354671 207.77207,235.829197 208.368115,237.121707 L208.48772,237.394997 C208.524866,237.484571 208.559274,237.572325 208.590898,237.657368 C209.283717,239.52267 209.093502,241.293311 208.04356,242.981736 C206.5564,245.374223 204.748808,247.582468 202.89476,249.7483 L201.035375,251.905247 C200.21112,252.862276 199.395728,253.820265 198.613252,254.791666 C195.336365,258.860557 192.010608,262.806126 188.408926,266.59443 C187.501458,267.5482 186.536097,268.448795 185.646673,269.419536 C185.514934,269.563433 185.386815,269.726494 185.259412,269.898865 L184.681128,270.704119 C184.417547,271.060378 184.139404,271.39475 183.823465,271.628405 C183.363053,271.968903 182.832647,272.05687 182.294638,272.105477 L181.689459,272.154797 C181.020785,272.216128 180.376787,272.340864 179.879321,272.945355 C179.750076,272.493693 179.390507,272.417197 178.959285,272.416312 L178.41758,272.43237 C178.093371,272.440541 177.765151,272.427048 177.487347,272.289143 C176.12464,271.612566 174.890874,270.583746 173.523656,269.869456 C170.317817,268.194607 167.124008,266.625732 163.835091,265.125873 C162.800797,264.654221 161.800705,264.120995 160.81075,263.570289 L158.837224,262.458631 C157.850088,261.904212 156.857045,261.361705 155.834028,260.875203 L155.572067,260.752547 L155.572067,260.752547 L154.482416,260.260064 L154.482416,260.260064 L153.92699,260.002685 C152.632408,259.386784 151.370239,258.647854 150.613639,257.458376 C149.620392,255.896735 149.993882,253.876008 150.60387,251.980001 L150.783612,251.442182 L150.783612,251.442182 L151.064542,250.6548 L151.064542,250.6548 L151.514123,249.419301 L151.514123,249.419301 L151.670347,248.960808 C152.506016,246.406955 153.644064,243.953656 154.828685,241.534882 L156.019356,239.125171 L156.019356,239.125171 C159.306017,232.474048 163.162572,226.134437 166.555618,219.544787 C167.219116,218.256122 167.742019,216.883734 168.419801,215.608647 L168.629467,215.203494 C168.787659,214.913297 168.988567,214.61578 169.267499,214.508172 C169.509591,214.414643 169.69802,214.476304 169.872212,214.553993 L170.076931,214.646008 C170.178396,214.686955 170.280413,214.713634 170.391497,214.695984 C170.622688,214.659286 170.735819,214.565628 170.826626,214.470304 L170.931005,214.358655 C171.019269,214.270847 171.123501,214.203492 171.339436,214.211885 Z M173,221.299785 C173.634401,225.177889 174.109917,229.079374 174.498008,232.988777 C174.6816,234.839399 175.007258,236.651179 175.36209,238.457869 L175.794666,240.625613 C176.01073,241.710423 176.22104,242.798261 176.401212,243.896416 L176.898999,247.047817 C177.313356,249.658838 177.772318,252.234706 178.619145,254.795759 L178.711894,255.055157 L178.711894,255.055157 L178.918157,255.576743 C179.055293,255.926499 179.178882,256.281374 179.212115,256.6477 C179.231754,256.862019 179.205737,257.08543 179.170007,257.31116 L179.096244,257.763704 C179.052633,258.064784 179.034351,258.361958 179.12659,258.639169 C179.182894,258.80844 179.278966,258.940909 179.388749,259.061512 L179.733172,259.412662 C179.80727,259.493868 179.875879,259.580884 179.93128,259.681099 C180.109551,260.003708 180.194315,260.351961 180.264255,260.70488 L180.367882,261.235137 C180.405276,261.411308 180.448798,261.586023 180.508285,261.756661 L179.589563,261.34713 L179.589563,261.34713 C179.330031,261.829901 179.720776,262.109916 180.183262,262.334053 L180.715821,262.576232 C180.882009,262.654263 181.025894,262.732385 181.114558,262.818954 C181.537239,263.231251 181.663239,263.688706 181.73492,264.151674 L181.805425,264.672749 C181.837937,264.903513 181.87959,265.131939 181.96068,265.353071 C182.25712,266.161206 182.828296,265.893307 183.433058,265.275978 L183.62487,265.070264 C183.656931,265.034325 183.689015,264.99763 183.721086,264.960284 L183.913083,264.729258 L183.913083,264.729258 L184.103095,264.487714 L184.103095,264.487714 L184.470409,263.993408 L184.470409,263.993408 L185.106948,263.102307 L185.106948,263.102307 L185.235804,262.929508 L185.235804,262.929508 L185.349173,262.78687 L185.349173,262.78687 L185.399522,262.72845 C188.219109,259.573335 190.811261,256.296262 193.373339,252.984147 L196.253397,249.247818 C196.895216,248.416274 197.539781,247.584577 198.190176,246.754085 C199.11384,245.575268 200.055369,244.449246 201.056195,243.334913 L201.16666,243.21481 L201.16666,243.21481 L201.864522,242.483043 C202.419127,241.883327 202.983458,241.176211 202.99969,240.568879 C203.02243,239.719005 201.788795,238.815439 200.411242,238.024815 L199.948254,237.765685 L199.948254,237.765685 L199.253812,237.395677 L199.253812,237.395677 L197.793865,236.643529 L197.793865,236.643529 L197.459191,236.463396 L197.459191,236.463396 L197.177947,236.30123 L197.177947,236.30123 C195.503457,235.284278 193.780894,234.339549 192.044775,233.41485 L188.912574,231.760749 C185.780642,230.105732 182.671885,228.414146 179.787599,226.381595 C178.429471,225.424513 177.062601,224.452725 175.803681,223.368183 C175.70357,223.281921 175.602372,223.187369 175.499711,223.087639 L174.863193,222.452027 C174.313127,221.912073 173.707715,221.398303 173,221.299785 Z M128.953866,264.571207 C129.440402,263.767482 125.916344,263.517937 126.00152,264.332681 C126.058735,264.877927 128.673816,265.033669 128.953866,264.571207 Z M175.406038,264.835093 C175.465792,264.866262 175.556491,264.81377 175.64915,264.718912 L175.728375,264.628192 L175.728375,264.628192 L175.804504,264.522501 C175.816709,264.503959 175.828615,264.485034 175.840139,264.465846 L175.904017,264.348532 C176.10679,263.933642 176.066323,263.509104 175,264.189867 C175.097651,264.444827 175.232997,264.660011 175.406038,264.835093 Z M174.537989,261.533934 C176.457421,260.95344 176.556073,258.570639 174.421468,258.781282 C173.653472,258.857212 172.911814,259.120414 172.180301,259.425663 L171.088615,259.896919 C170.725906,260.052414 170.363709,260.200267 170,260.322326 C170.03449,260.754995 170.238531,260.827484 170.479716,260.831572 L170.811685,260.822105 C170.921928,260.822516 171.027885,260.835031 171.117931,260.885266 C171.230357,260.948133 171.431012,260.865263 171.562423,260.932212 C171.618823,260.961145 171.640566,261.032099 171.650111,261.112052 L171.664612,261.345883 C171.669684,261.389167 171.679317,261.421774 171.700164,261.433919 C172.579097,261.948281 173.398094,261.878474 174.537989,261.533934 Z M173.412727,253.779192 C172.823023,253.599913 172.160602,253.771713 171.520733,254.009727 L171.09854,254.175087 L171.09854,254.175087 L170.689301,254.34131 C170.488966,254.421512 170.295841,254.495003 170.113455,254.551234 C168.9184,254.919784 167.699665,255.168409 166.476032,255.395038 L164.639255,255.730726 C163.415418,255.959843 162.196073,256.21593 161,256.596918 C162.195273,257.61567 163.512,258.499814 165.027273,258.728113 C165.93525,258.865276 166.728516,258.629872 167.519228,258.326497 L168.313244,258.011746 C168.669455,257.871815 169.032545,257.738513 169.412364,257.638581 C170.335091,257.395963 171.266,257.200089 172.199227,257.017716 L174.067035,256.661123 C174.378273,256.601408 174.689333,256.54073 175,256.47786 L174.949533,256.309612 L174.949533,256.309612 L174.856901,255.971098 L174.856901,255.971098 L174.723333,255.46934 C174.508622,254.703048 174.228036,254.027211 173.412727,253.779192 Z M171.27254,248.656146 C170.356528,248.590187 169.434822,248.757774 168.520783,248.960126 L167.350867,249.223802 C167.092293,249.279699 166.834811,249.33148 166.578735,249.374508 L165.743756,249.518809 L165.743756,249.518809 L164.060607,249.817622 C162.652689,250.063496 161.234929,250.286841 159.832768,250.377526 C159.48117,250.400357 159.101452,250.392401 158.708959,250.377322 L157.810762,250.341358 C156.903951,250.313344 155.990717,250.339127 155.24583,250.688275 C154.682588,250.952373 154.027692,251.435498 154.002211,252.185488 C153.987607,252.612235 154.046662,252.699957 154.140766,252.751726 L154.245123,252.802737 C154.270275,252.816398 154.296521,252.833273 154.323439,252.856687 L154.364267,252.897129 C155.184762,253.816924 156.122663,253.8028 157.093502,253.574663 L157.418219,253.491678 C157.472504,253.476856 157.52686,253.461619 157.581276,253.446093 L158.400058,253.206859 C158.509328,253.176173 158.618541,253.146796 158.727582,253.119714 C161.270726,252.487935 163.83859,251.971996 166.415581,251.514964 C166.764251,251.453131 167.139694,251.408044 167.530128,251.369768 L169.143881,251.229423 C170.235774,251.128663 171.322538,250.982104 172.180724,250.601297 C173.947652,249.817702 172.484974,248.74352 171.27254,248.656146 Z M170.529677,244.610147 C169.562467,244.528919 168.601928,244.717939 167.651393,244.936568 L166.94042,245.102332 C166.704089,245.15693 166.468435,245.20962 166.233511,245.256639 C164.503189,245.602947 162.727471,245.917353 160.965634,246.019208 C160.20102,246.063409 159.433031,246.009599 158.669543,246.077631 C158.62667,246.081509 158.551343,246.120952 158.46478,246.17635 L158.28296,246.302609 L158.28296,246.302609 L158.108899,246.436555 L158.108899,246.436555 L157.944874,246.575626 L157.944874,246.575626 L157.934944,246.58806 L157.642305,246.282494 L157,246.217922 L157,246.217922 C157.594934,247.624272 158.603215,247.764743 159.744914,247.545922 L160.059383,247.478016 L160.059383,247.478016 L160.379207,247.396382 L160.379207,247.396382 L160.703122,247.305104 L160.703122,247.305104 L161.522532,247.061545 L161.522532,247.061545 L161.850831,246.968702 L161.850831,246.968702 L162.177544,246.884607 C162.231794,246.871548 162.285925,246.859023 162.339911,246.847118 C164.860809,246.290873 167.478712,246.223902 170.06665,246.219364 L172,246.220997 L172,246.220997 L171.976728,245.918683 C171.886369,244.934474 171.676547,244.706304 170.529677,244.610147 Z M171.828194,238.995625 C171.41235,238.334434 170.188895,238.466129 169.061295,238.73591 L168.66877,238.835794 L168.66877,238.835794 L168.293032,238.940748 L168.293032,238.940748 L167.354808,239.222055 L167.354808,239.222055 L167.134486,239.283315 L167.134486,239.283315 C166.091483,239.549321 165.078916,239.666642 164.002746,239.779705 C163.867595,239.793855 163.708957,239.825401 163.533655,239.86775 L163.162851,239.964899 L163.162851,239.964899 L162.336437,240.198747 L162.336437,240.198747 L161.905083,240.312008 C161.186185,240.488976 160.484258,240.590664 160.05197,240.372926 L159.930625,240.297778 L159,242.565608 C161.071888,242.011419 163.243666,241.691932 165.40036,241.420814 L167.938151,241.112459 L167.938151,241.112459 L168.552858,241.044135 L168.552858,241.044135 L168.959975,240.990315 L168.959975,240.990315 L169.254683,240.945403 L169.254683,240.945403 L169.561075,240.892374 L169.561075,240.892374 L169.873195,240.830464 L169.873195,240.830464 L170.185085,240.758909 C170.236716,240.746136 170.28809,240.732931 170.339082,240.719275 L170.639454,240.631819 C171.618796,240.321464 172.346045,239.818517 171.828194,238.995625 Z M169.999129,235.237113 C169.955545,234.405663 168.972077,234.364399 167.795239,234.564531 L167.396822,234.639429 L167.396822,234.639429 L166.990225,234.727692 L166.990225,234.727692 L166.581593,234.824802 L166.581593,234.824802 L165.224057,235.169152 L165.224057,235.169152 L164.882299,235.250181 L164.882299,235.250181 L164.572298,235.315216 C164.085508,235.407768 163.756641,235.414856 163.7137,235.24238 C163.834598,235.729318 163.666838,236.152743 163.453663,236.56327 L163.207509,237.02234 C163.127623,237.175329 163.054177,237.329173 163,237.486541 C163.078978,237.496781 163.184321,237.502018 163.311714,237.502305 L163.594623,237.496292 L163.594623,237.496292 L163.928664,237.47717 L163.928664,237.47717 L164.306169,237.445033 C164.372282,237.438598 164.439887,237.431624 164.508824,237.424113 L164.937143,237.372629 C165.010767,237.362981 165.085403,237.3528 165.160891,237.342088 L165.62277,237.271467 L165.62277,237.271467 L166.097435,237.188205 L166.097435,237.188205 L166.577217,237.092396 L166.577217,237.092396 L167.054446,236.984132 C168.632436,236.602602 170.040067,236.015065 169.999129,235.237113 Z M169.96637,229.726062 C170.13648,228.547742 169.638485,228.348108 168.985609,228.394424 L168.785613,228.414965 L168.785613,228.414965 L168.579403,228.445866 L168.579403,228.445866 L167.954287,228.556769 L167.954287,228.556769 L167.754017,228.585149 L167.754017,228.585149 L167.232883,228.649964 L167.232883,228.649964 L167.018978,228.684887 C166.420443,228.798439 166.200079,229.009887 166.075861,229.827279 L166.037629,230.122882 L166.037629,230.122882 L166.004198,230.467552 L166.004198,230.467552 C165.854954,232.212796 169.733253,231.340382 169.96637,229.726062 Z M168.998536,225.406546 C168.981264,224.95913 168.159942,223.774815 167.79496,224.654682 C167.544518,225.221042 167.279077,225.783463 167,226.339583 L167.250832,226.343962 L167.250832,226.343962 L167.741731,226.361226 L167.741731,226.361226 L167.973975,226.362266 C168.576335,226.350392 169.029141,226.20029 168.998536,225.406546 Z M198.884432,202.333795 C200.535181,200.362728 203.44015,200.860709 204.853286,202.922043 C204.998111,203.133368 205.126025,203.387481 205.247013,203.665634 L205.389513,204.009758 L205.389513,204.009758 L205.741835,204.923795 L205.741835,204.923795 L205.891258,205.292002 C206.353517,206.386249 206.958946,207.354717 208.173413,207.322716 C209.142293,207.297183 209.790164,206.620709 210.382423,205.827707 L210.65279,205.455377 L210.65279,205.455377 L211.056217,204.891396 C211.509093,204.273254 211.98946,203.707783 212.618118,203.43823 C213.642328,202.998656 214.584418,203.29259 214.904151,204.436849 C215.251447,205.677916 214.605613,206.158001 213.760416,206.515042 L213.514191,206.614257 L213.514191,206.614257 L212.878162,206.854697 L212.878162,206.854697 C212.218505,207.111037 211.652748,207.617338 211.107233,208.160172 L210.468224,208.804901 L210.468224,208.804901 L210.204414,209.061884 C209.364858,209.858108 208.476392,210.460272 207.270861,210.091389 C205.870811,209.663083 205.368272,208.607763 204.947806,207.48402 L204.635103,206.637112 C204.339207,205.865021 203.985748,205.126594 203.309748,204.603348 C202.334201,203.847842 200.673187,203.999171 199.715129,204.749747 C199.60513,204.836004 199.494234,204.970601 199.380397,205.130612 L199.207182,205.386823 L199.207182,205.386823 L198.935734,205.805005 C198.562589,206.368178 198.139982,206.90216 197.612724,206.787945 C196.711596,206.593253 196.938065,205.583267 197.439823,204.565184 L197.597757,204.260323 L197.597757,204.260323 L197.767095,203.95982 L197.767095,203.95982 L197.942722,203.668517 L197.942722,203.668517 L198.119524,203.391258 L198.119524,203.391258 L198.292389,203.132886 L198.292389,203.132886 L198.605849,202.692176 L198.605849,202.692176 L198.792572,202.447242 L198.792572,202.447242 L198.884432,202.333795 L198.884432,202.333795 Z M203.255787,194.533615 C205.046426,193.555145 206.594775,193.941672 207.863914,195.534038 L207.951674,195.645929 L207.951674,195.645929 L208.128113,195.879931 L208.128113,195.879931 L208.854621,196.893153 L208.854621,196.893153 L209.139766,197.276169 L209.139766,197.276169 L209.334969,197.523714 L209.334969,197.523714 L209.534798,197.761261 C210.478845,198.841477 211.589146,199.489864 213.077767,198.233063 C213.302654,198.04323 213.502447,197.821913 213.69497,197.592406 L214.123393,197.072024 C214.554586,196.557477 215.01664,196.089916 215.712576,195.934678 C216.440167,195.772236 217.219137,196.00916 217.956719,196.305021 L218.393559,196.486886 L218.393559,196.486886 L218.816013,196.666556 C218.953939,196.724264 219.088725,196.778882 219.219629,196.827688 C220.549917,197.323196 220.013033,199.044927 218.852348,199.261711 C218.378686,199.350285 217.956207,199.231535 217.542478,199.09129 L217.189007,198.97015 C216.659045,198.793547 216.123507,198.66918 215.492207,198.992005 C214.962522,199.26301 214.574966,199.660284 214.232779,200.080871 L214.010313,200.363587 L214.010313,200.363587 L213.580226,200.922627 C212.966904,201.689356 212.2853,202.294378 210.883311,202.043844 C209.654511,201.82433 208.890485,201.032643 208.193083,200.151637 L207.556651,199.327096 C207.02273,198.642281 206.45574,197.992526 205.674458,197.597606 C204.690491,197.099894 203.78573,197.299099 202.838312,197.617984 L202.429308,197.760293 L202.429308,197.760293 L201.838903,197.989349 L201.838903,197.989349 L201.588961,198.076545 C200.989397,198.271439 200.300861,198.380318 200.061019,197.855944 C199.739739,197.154123 200.744409,196.211089 201.734614,195.496357 L202.045266,195.278788 L202.045266,195.278788 L202.345576,195.079683 L202.345576,195.079683 L202.756129,194.822833 L202.756129,194.822833 L203.179787,194.575655 C203.207375,194.560234 203.232774,194.546197 203.255787,194.533615 Z" id="illustration_01"></path>
        </g>
    </g>
</svg>