<?xml version="1.0" encoding="UTF-8"?>
<svg width="106px" height="180px" viewBox="0 0 106 180" version="1.1" xmlns="http://www.w3.org/2000/svg" xmlns:xlink="http://www.w3.org/1999/xlink">
    <title>2401DE53-6522-4038-B5D5-68B91BE07D04</title>
    <g id="To-Do" stroke="none" stroke-width="1" fill="none" fill-rule="evenodd">
        <g id="1280px-–-#0-Empty-state" transform="translate(-1060.000000, -393.000000)" fill="#E8ECF0">
            <path d="M1098,399 L1098,399 C1097.9648,401.454682 1097.90845,404.180984 1098,407 L1098,409 C1097.61826,411.957012 1097.54998,414.676703 1098,417 C1098.12388,421.411601 1098.71133,425.349372 1099,429 L1100,432 C1100.08399,433.715816 1100.33005,435.195329 1101,437 C1101.35965,441.658186 1102.50847,446.555582 1104,451 L1105,457 L1105,457 C1105.61878,458.890426 1106.0083,460.492564 1106,462 L1108,467 C1108.48753,470.943197 1109.45797,474.962112 1111,479 C1110.93284,477.469193 1110.73724,475.807161 1111,474 L1110,473 C1110.31477,472.749835 1110.24528,472.187576 1110,472 C1110.15584,470.835988 1110.08911,470.020593 1110,469 L1110,467 C1109.66931,465.125892 1109.55497,463.492891 1110,462 C1109.47846,456.64641 1109.43784,451.338258 1110,446 C1109.75798,445.706383 1109.78039,445.259932 1110,445 L1110,442 L1110,442 L1110,441 C1110.1626,437.363268 1110.48103,433.967111 1112,431 C1112.24827,428.416633 1113.33993,426.135673 1114,424 C1115.28651,422.122893 1115.7864,420.349141 1116,419 L1117,416 C1116.82517,416.080236 1116.87264,415.888817 1117,416 C1117.0602,415.14658 1117.21341,414.600115 1117,414 L1118,412 C1118.26108,411.059248 1118.64622,409.692945 1119,408 L1119,408 L1119,408 L1119,407 L1119,407 L1119,407 L1119,407 L1119,406 L1119,406 L1119,406 L1119,406 L1119,406 L1119,406 L1120,405 L1120,405 L1120,405 C1119.6599,405.104827 1119.67476,405.072504 1120,405 L1120,405 C1120.21555,404.096434 1120.81915,403.965822 1122,406 C1122.30134,406.86045 1122.37459,408.498003 1122,410 L1122,411 L1122,411 L1122,412 C1122.27854,412.202145 1122.27291,412.53172 1122,413 C1122.31443,415.649747 1121.8849,418.377529 1122,421 L1122,425 C1121.64877,428.476571 1121.5436,432.126313 1121,436 L1121,438 C1120.7837,443.037516 1121.09841,447.941453 1122,453 L1122,454 C1122.94525,457.856567 1123.35815,461.576584 1124,465 L1124,468 L1124,468 L1124,470 C1124.2325,471.136134 1124.31032,471.970713 1124,473 C1124.71237,476.04259 1125.25099,479.260763 1126,483 C1125.52445,482.667625 1125.52987,482.863725 1126,483 L1126,484 L1126,484 L1125,486 C1125.44983,485.636899 1125.44689,485.739486 1125,486 L1125,486 C1125.41898,488.114206 1125.53815,489.730416 1126,490 C1126.25529,488.30336 1126.6889,486.244228 1127,484 L1128,482 C1127.68892,481.963232 1127.73981,481.73996 1128,482 C1128.2145,479.610804 1128.49875,477.65016 1129,476 L1129,473 C1129.1893,472.550993 1129.30202,471.771273 1129,471 C1129.84875,468.395194 1130.45311,465.846654 1131,463 L1132,460 C1132.50637,457.811086 1132.92383,456.113509 1133,454 L1134,453 L1134,453 L1135,448 L1135,448 L1135,446 L1135,446 L1135,445 C1135.16268,445.284557 1135.20044,445.113599 1135,445 L1135,444 L1135,444 L1136,443 L1136,443 L1136,442 L1136,442 L1136,441 C1138.29661,432.968158 1141.45394,425.349057 1148,421 C1148.66308,419.993127 1149.54236,419.478591 1150,419 L1152,418 C1151.68987,418.288514 1151.86928,418.188555 1152,418 C1152.2221,417.989016 1152.41394,417.857318 1153,418 L1153,417 C1153.99471,416.687038 1154.52785,416.338654 1155,416 C1156.00449,416.009105 1156.42681,416.18469 1157,417 C1157.22654,418.472961 1156.86706,419.182992 1156,420 L1156,420 L1156,420 L1156,421 L1156,421 L1155,421 L1155,421 C1153.43436,423.325819 1152.12793,426.086485 1151,429 L1151,430 L1151,430 L1150,432 L1150,432 L1149,433 C1149.01955,433.86138 1148.86565,434.237448 1149,435 L1148,435 C1143.8077,445.946728 1141.67976,457.298547 1142,469 L1142,470 C1141.53528,476.08321 1141.10379,482.115648 1140,488 L1140,490 C1139.51897,496.431171 1138.57038,502.741802 1137,509 C1136.98785,508.589611 1137.23753,508.628277 1137,509 L1138,509 L1138,509 L1139,509 L1139,509 L1139,509 C1140.26507,508.927855 1141.20974,509.243357 1142,511 C1141.5961,510.897853 1141.59341,511.131071 1142,511 L1142,512 C1141.52865,512.149117 1141.52934,512.423488 1142,513 C1141.73186,513.444031 1142.08341,514.176506 1142,515 C1142.72131,516.398828 1142.94869,517.876882 1143,519 C1143.3479,520.814028 1143.57016,522.196759 1144,524 L1144,527 C1144.89866,530.080072 1145.41468,533.496648 1146,537 C1145.60894,541.441277 1144.95154,545.885845 1144,550 L1144,552 L1144,552 L1144,554 L1144,554 C1142.93375,557.026699 1141.64509,560.036779 1140,563 L1140,564 L1140,564 L1138,567 C1138.08517,567.312381 1137.70351,568.101488 1137,569 C1138.32187,568.897907 1139.30575,568.908063 1140,569 C1141.98476,569.100062 1143.69826,569.155016 1145,569 L1148,569 C1149.28509,569.261852 1150.57334,569.30684 1152,569 C1152.03837,569.428454 1152.23171,569.444699 1152,569 L1153,570 L1153,570 L1153,570 L1153,570 L1153,570 L1153,570 L1153,570 C1154.22706,569.88782 1154.67299,570.393427 1154,572 C1153.25291,572.287669 1152.01863,572.434885 1151,572 L1150,572 L1150,572 L1149,572 C1149.16896,572.450285 1149.04747,572.451714 1149,572 L1149,572 C1146.4692,572.609858 1144.07479,572.606145 1142,573 L1138,573 L1138,573 C1137.46446,572.503284 1136.65848,572.286424 1136,572 C1135.07045,572.391251 1134.05151,573.003175 1133,573 C1133.06356,572.998056 1132.91168,572.897397 1133,573 L1133,573 C1132.4625,572.526979 1132.35187,572.460698 1132,572 C1131.31644,572.344406 1130.41873,572.2707 1130,572 C1123.64527,572.272291 1117.81192,572.222472 1112,572 L1100,572 C1098.3944,572.030833 1096.45074,572.015923 1095,572 L1089,572 C1082.94573,571.978046 1077.15111,571.891016 1071,572 L1069,572 L1069,572 L1067,572 L1067,572 L1066,572 L1066,572 L1066,571 L1066,571 L1065,571 L1065,571 L1065,571 L1065,571 L1064,571 C1063.97038,571.343019 1063.80895,571.324104 1064,571 L1063,571 C1061.38272,570.951297 1059.90876,570.397367 1060,569 C1060.07434,568.505475 1061.11035,568.138042 1062,568 L1062,568 L1062,568 L1063,568 L1063,568 L1064,568 L1064,568 C1064.1445,567.640645 1064.71227,567.634722 1065,568 L1066,568 C1065.87856,567.589132 1066.05843,567.584749 1066,568 L1067,568 L1067,568 L1067,568 L1067,568 L1067,568 C1067.94357,567.467805 1068.14982,567.17329 1068,566 L1068,565 L1068,565 L1068,565 L1068,565 L1068,564 L1068,564 L1068,564 L1068,564 L1067,563 L1067,563 L1067,562 L1067,562 L1067,562 L1067,562 L1067,561 L1067,561 L1067,561 L1067,561 L1067,560 L1067,560 L1067,560 L1067,560 L1067,559 C1067.24551,559.261811 1067.24527,559.174276 1067,559 L1067,559 L1067,559 L1067,558 C1067.27489,557.865792 1067.28385,557.692334 1067,558 L1067,557 L1067,557 L1067,556 C1067.3918,556.404354 1067.40158,556.319441 1067,556 L1067,556 C1067.55418,555.22673 1067.64759,554.733139 1068,554 L1068,554 C1068.95821,549.838923 1071.54951,546.852375 1077,547 C1081.30973,546.852375 1084.70189,547.700825 1087,549 L1088,549 L1088,549 L1089,549 L1089,549 L1090,549 L1090,549 L1091,550 L1091,550 L1092,550 C1091.98984,550.410355 1092.06982,550.44012 1092,550 L1093,551 C1093.69376,551.00293 1094.65375,551.221256 1096,551 C1093.6661,546.587879 1093.30602,541.667533 1093,537 L1093,536 L1093,536 L1093,534 L1093,534 L1093,533 L1093,533 C1093.42984,527.748036 1093.97052,522.444242 1095,517 L1095,516 C1094.97453,514.53521 1095.12098,513.333636 1095,512 L1096,512 L1096,512 L1096,512 L1096,512 L1096,511 L1096,511 L1096,511 C1096.07063,510.648355 1096.08278,510.423556 1096,510 L1095,510 C1095.31976,509.571008 1095.27489,509.524988 1095,509 C1094.48832,508.728886 1093.69666,508.030474 1093,507 L1091,506 C1090.46539,505.282331 1089.66996,504.578084 1089,504 C1088.20855,503.092632 1087.48931,502.390868 1087,502 L1084,499 L1084,499 L1083,498 C1080.80437,495.937814 1078.67227,493.63836 1077,491 L1075,488 C1072.45719,484.039841 1069.80958,479.788249 1068,475 C1066.1772,471.500758 1065.18985,467.510819 1064,463 L1064,462 L1064,462 L1064,460 C1063.52791,459.441677 1063.36639,458.633066 1063,458 C1063.07165,457.198387 1062.85391,456.552356 1063,456 L1062,455 C1061.54969,453.12142 1061.06331,451.647397 1061,450 C1061.53303,448.388984 1062.13932,448.393301 1063,449 L1063,449 L1063,449 L1063,449 L1063,449 L1063,450 L1063,450 L1063,450 L1063,450 L1063,450 L1063,450 L1063,450 L1063,450 L1064,450 L1064,450 L1064,451 L1064,451 L1064,451 L1064,451 L1064,451 C1065.11849,454.846953 1067.72747,458.333467 1070,462 L1071,462 L1071,462 L1073,465 C1073.20085,464.849414 1073.32394,464.994486 1073,465 C1075.08732,467.079221 1076.88535,468.883648 1079,471 L1081,473 C1083.0135,474.787397 1084.52859,476.279713 1086,478 C1088.26044,480.383987 1090.18046,483.118684 1092,486 L1094,489 C1094.96089,490.20896 1096.02239,491.74585 1097,493 C1097.16082,489.664267 1096.46895,486.042609 1096,482 L1095,481 C1094.88037,478.561742 1094.4174,476.357254 1094,474 C1093.64159,470.861802 1093.36642,467.542313 1093,464 L1093,461 C1092.82198,460.339995 1092.77858,459.785615 1093,459 L1093,458 C1091.47345,444.969393 1092.44029,432.000061 1094,419 C1094.44966,415.997621 1094.48397,412.551676 1094,409 L1094,405 C1094.36219,403.88916 1094.3523,402.842261 1094,402 C1094.35709,401.579591 1094.3481,401.338252 1094,401 L1094,401 L1094,401 L1094,399 L1094,399 L1094,399 C1094.02008,396.777057 1093.98594,394.835243 1095,394 C1095.459,392.357593 1096.17062,393.042436 1097,394 L1097,395 L1097,395 L1097,395 L1097,395 L1097,395 L1097,395 L1097,396 L1097,396 L1097,396 L1097,396 L1097,396 L1097,396 L1097,397 L1097,397 L1097,397 L1097,397 L1098,398 L1098,398 L1098,398 L1098,398 L1098,399 L1098,399 Z M1131,513 C1125.13899,512.944889 1119.49998,513.031546 1114,513 L1112,513 L1112,513 L1107,513 C1106.4372,513.261842 1105.69529,513.274136 1105,513 C1103.59869,513.290858 1102.27138,513.222653 1101,513 C1100.45314,513.044396 1100.0081,512.938299 1100,513 L1099,513 L1099,513 L1099,513 L1099,513 L1098,513 C1098.20309,512.844451 1098.07349,512.912561 1098,513 L1098,513 C1097.88975,513.333463 1097.87958,513.363206 1098,513 L1098,514 L1098,514 L1098,514 L1098,514 C1097.31237,515.309109 1097.28854,516.803953 1097,518 L1097,520 C1097.38457,520.614943 1097.39315,521.418346 1097,522 C1097.11941,525.166666 1096.98862,528.198691 1097,531 L1097,532 C1097.0722,535.665517 1096.96542,538.828005 1097,542 C1097.12502,543.155875 1097.23904,544.120914 1097,545 L1098,546 C1097.6496,545.77272 1097.68361,545.91059 1098,546 L1098,547 L1098,547 L1098,548 L1098,548 L1098,548 C1098.20717,548.329194 1098.23009,548.428028 1098,549 L1098,549 C1098.65797,550.074977 1098.97589,550.943865 1099,551 C1099.42315,551.399212 1099.49501,551.403907 1100,551 L1100,551 C1100.17543,551.357201 1100.43507,551.361649 1101,552 C1100.69654,551.696176 1100.76704,551.990311 1101,552 L1101,553 C1100.91956,552.831002 1100.96477,553.015323 1101,553 C1101.46813,553.621447 1102.13943,553.865008 1103,554 L1104,554 C1104.02002,554.349538 1104.24458,554.413531 1104,554 C1107.21582,555.4859 1109.77195,556.559453 1112,558 L1113,558 C1113.49669,558.430251 1113.78093,558.566138 1114,559 L1115,559 L1115,559 L1116,560 L1116,560 L1117,560 C1118.59801,560.703049 1120.56881,561.760146 1122,563 C1121.81803,563.876446 1122.00435,564.420613 1122,565 L1122,566 C1122.56191,566.385099 1122.73448,566.938439 1123,567 C1123.25288,567.923859 1123.24479,568.15617 1123,568 L1123,568 L1123,568 L1123,568 C1123.11749,568.399139 1123.1178,568.406209 1123,568 L1123,568 L1123,568 L1124,569 L1124,569 L1124,569 C1123.96638,568.653781 1124.02024,568.670473 1124,569 C1124.52626,568.829714 1125.12047,568.816872 1126,569 L1127,569 C1126.73303,568.697012 1126.90187,568.688451 1127,569 C1127.79985,569.086542 1129.29561,569.028498 1130,569 L1131,569 C1130.8277,568.8586 1130.88971,568.849842 1131,569 C1132.05383,568.678012 1132.48672,568.323373 1133,568 L1133,567 L1133,567 L1134,567 L1134,567 L1134,566 C1135.54615,563.963828 1136.98512,561.548304 1138,559 C1139.49838,554.506363 1140.32778,550.316103 1141,546 L1141,544 L1141,544 L1142,541 L1142,541 C1142.29013,537.622487 1141.90411,533.697339 1141,530 L1141,528 L1141,528 L1141,526 C1140.70553,525.301154 1140.53825,524.118475 1140,523 L1140,522 C1140.12774,520.2913 1139.92785,518.823731 1140,517 L1140,517 L1140,517 L1140,517 L1140,517 L1140,516 L1140,516 L1139,515 C1139.3884,514.042765 1139.23652,513.105188 1139,513 C1138.38627,511.973087 1136.76189,511.919791 1135,512 L1134,512 C1134.37345,512.127904 1134.27757,512.138403 1134,512 L1133,512 L1133,512 L1132,512 L1132,512 L1131,513 L1131,513 L1131,513 C1130.85844,512.566114 1130.79856,512.570752 1131,513 Z M1076,550 C1072.13425,550 1069.4397,558.928729 1070,562 C1070.36369,563.331005 1070.93458,565.22442 1072,566 C1072.57461,566.040054 1073.81322,566.029635 1075,566 L1076,566 L1076,566 L1077,566 L1077,566 L1079,566 C1084.77108,565.226025 1090.17609,564.908864 1096,565 C1102.83278,565.755581 1110.47412,566.08541 1118,566 C1118.09068,565.794703 1118.55985,565.764805 1119,565 C1117.98506,565.060039 1116.97665,564.603775 1116,564 L1114,563 C1111.43184,562.000693 1109.14598,560.963851 1107,560 L1106,560 C1104.40455,559.586823 1103.13088,558.951119 1102,558 L1101,558 C1101.19649,557.796751 1101.09103,557.730967 1101,558 L1100,557 C1098.84219,556.31261 1097.46328,555.474544 1096,555 L1095,555 L1095,555 L1094,554 L1094,554 L1093,554 L1093,554 L1091,553 L1091,553 L1089,553 L1089,553 L1088,553 L1088,553 L1087,552 L1087,552 L1086,552 L1086,552 L1085,552 L1085,552 L1084,551 L1084,551 L1083,551 C1082.88782,551.146066 1082.7402,551.110495 1083,551 L1082,551 C1081.5806,550.840138 1081.43868,550.808254 1081,551 L1080,551 L1080,551 L1080,550 C1078.25246,550.166367 1077.03346,550 1076,550 Z M1159,549 C1159.87734,549.691855 1160.79868,550.458563 1162,551 L1163,552 L1163,552 L1164,553 C1164.63095,553.722557 1165.37986,554.411854 1166,555 C1165.42355,555.231807 1164.82032,555.532956 1164,556 L1164,556 C1163.46202,556.360395 1163.40445,556.394158 1163,556 L1163,557 C1162.72613,556.751686 1162.28582,557.0102 1162,557 L1161,558 C1160.32922,558.218917 1160.1101,558.350522 1160,558 C1158.80119,559.105401 1157.67322,559.653176 1157,560 L1155,561 L1155,561 L1155,561 L1155,561 L1154,562 C1154.07582,561.801323 1153.72588,561.998067 1153,562 C1152.8868,562.005085 1152.93132,561.482222 1153,561 L1153,561 L1153,561 L1153,560 L1153,560 L1154,560 L1154,560 L1154,560 L1154,560 L1154,559 L1154,559 L1155,557 C1155.27731,556.547257 1155.42386,556.237223 1156,556 C1156.08509,554.755258 1156.62214,553.594744 1157,552 L1157,552 L1157,552 L1158,551 C1158.0841,550.381392 1158.43428,549.650156 1159,549 Z M1159,551 C1158.7497,551.642428 1158.6121,551.953516 1158,552 L1158,553 L1158,553 L1158,554 L1158,554 L1157,555 C1157.10465,555.224633 1156.92888,555.594569 1157,556 L1157,557 C1156.47007,556.766663 1156.37399,556.98368 1156,557 L1156,558 C1155.90302,557.935548 1155.85046,558.04365 1156,558 C1155.51865,558.76344 1155.31161,559.406298 1155,560 L1163,555 L1163,555 L1160,552 L1160,552 L1160,552 L1160,552 L1160,551 C1159.65702,551.346353 1159.509,551.208759 1159,551 L1159,551 L1159,551 L1159,551 C1159.11157,550.988238 1159.08869,550.992946 1159,551 L1159,551 L1159,551 Z M1096,429 C1095.70324,431.139782 1095.59265,433.397958 1096,436 L1095,438 C1095.46086,438.655158 1095.43498,439.398337 1095,440 L1095,441 C1095.03121,444.829064 1095.06117,448.721511 1095,453 C1095.29181,457.649367 1095.68334,462.548808 1096,467 L1097,473 C1096.69662,473.598312 1096.75309,474.213762 1097,475 C1097.02596,476.407986 1097.30589,477.991634 1098,480 L1098,483 C1098.87184,486.39864 1099.39562,489.686078 1099,493 C1099.43451,493.239051 1099.42785,493.512027 1099,494 L1099,495 C1099.34651,495.467115 1099.33194,496.316998 1099,497 C1099.65927,497.873774 1100.01865,498.592032 1100,499 L1101,500 C1100.97733,500.369659 1101.15896,500.727084 1101,501 L1102,503 L1102,503 L1102,503 C1102.26656,503.352802 1102.29406,503.422849 1102,503 L1102,504 C1102.50821,503.992657 1102.53403,504.064882 1103,504 L1103,505 C1103.29157,506.404556 1103.5221,508.311207 1102,509 C1102.24568,508.368674 1101.71477,507.22713 1101,506 L1101,506 L1101,506 L1100,505 C1100.15939,504.481635 1100.01674,504.229373 1100,504 C1098.7149,501.747173 1097.16659,499.692918 1096,498 C1093.21525,492.915674 1090.21894,488.427739 1087,484 C1084.94217,482.236549 1082.95909,480.220764 1081,478 L1079,476 C1078.28667,475.562318 1077.62279,474.894299 1077,474 L1076,473 L1076,473 L1076,473 L1076,473 L1075,472 L1075,472 L1074,470 L1074,470 L1070,466 L1070,466 L1069,465 L1069,465 L1068,463 L1068,463 L1067,463 L1067,463 L1067,462 L1067,462 L1067,462 L1067,462 L1066,462 L1066,462 L1066,461 C1066.07828,461.409142 1066.02199,461.37315 1066,461 C1068.66093,471.699713 1073.18438,480.676238 1079,489 C1081.29153,491.988713 1083.45078,494.085584 1086,496 L1088,498 C1088.58166,498.809853 1089.16374,499.356311 1090,500 C1090.2355,500.396953 1090.79245,500.876387 1091,501 L1093,502 L1093,502 L1093,503 L1094,503 L1094,504 L1094,504 L1094,504 C1094.48712,504.031844 1094.55438,504.095742 1095,504 L1095,505 C1096.81704,506.380763 1098.11055,508.461756 1098,511 C1098.29891,510.928482 1099.03811,510.850385 1100,511 L1103,510 C1106.0552,510.073626 1109.01336,509.792327 1112,510 L1112,509 L1112,509 L1111,505 C1110.86939,500.783823 1110.32083,496.729245 1109,493 L1109,491 C1108.35702,488.015414 1107.67868,484.515159 1107,481 L1106,475 C1105.62023,473.293723 1105.35738,471.896201 1105,471 C1103.68672,463.400519 1101.31721,456.5231 1100,449 C1098.43161,442.642878 1097.21902,435.865307 1096,429 Z M1119,422 C1118.64251,423.609953 1118.46218,425.670158 1118,427 C1117.05783,429.046887 1116.11898,430.654558 1115,432 C1113.9865,436.035087 1113.48309,440.200491 1113,444 C1112.97046,452.966656 1112.78672,461.799228 1113,471 C1113.67708,474.446065 1113.88199,478.246962 1114,482 C1113.79201,482.92954 1113.74893,483.785764 1114,485 L1114,487 C1113.43585,488.977992 1113.35777,491.391824 1114,494 C1114.59844,497.710115 1115.08157,501.394189 1115,505 L1116,507 L1116,507 L1116,508 L1116,508 L1116,508 L1116,508 L1116,508 C1115.76544,508.744241 1116.03929,508.965791 1117,509 L1117,509 L1117,509 L1117,509 L1117,509 L1118,509 L1118,509 L1119,509 L1119,509 C1119.54789,508.830715 1120.45642,508.823469 1121,509 L1123,509 C1123.79053,508.844502 1124.39599,508.838633 1125,509 C1124.7093,505.458346 1124.49013,502.10239 1124,499 L1124,493 C1123.54572,486.669145 1123.10709,480.636385 1122,475 C1121.96135,472.393509 1121.76747,470.152173 1122,468 L1121,465 C1121.15849,462.526469 1120.90522,459.83924 1120,457 C1119.94611,454.306327 1119.11177,451.495919 1119,449 C1118.27595,446.490177 1118.28777,444.345811 1118,442 L1118,441 C1118.40021,440.28682 1118.41261,439.808924 1118,439 C1118.43435,437.751816 1118.6017,436.183351 1119,435 L1119,433 C1119.0919,432.107281 1119.16058,431.479473 1119,431 L1119,430 L1119,430 L1120,427 L1120,427 L1120,426 L1120,426 L1120,426 L1120,426 L1120,425 L1120,425 L1120,425 L1120,425 L1120,424 C1119.83569,423.006756 1119.74526,422.120502 1119,422 Z M1149,425 C1147.10363,425.979157 1145.75149,427.801777 1145,430 L1144,430 C1144.18409,430.444168 1144.124,430.550192 1144,431 L1144,431 L1144,431 L1143,432 L1143,432 L1143,433 L1143,433 C1140.90756,436.257201 1139.60236,440.071894 1139,444 C1137.25855,451.400645 1135.56533,458.884318 1134,466 C1133.12173,469.10297 1132.5568,471.881991 1132,475 L1131,478 C1130.58035,481.882253 1129.77656,485.762125 1129,490 L1128,492 L1128,492 L1128,493 C1126.97879,495.982335 1126.34886,498.736455 1126,501 L1126,502 L1126,502 L1126,503 L1126,503 L1126,504 L1126,504 L1126,505 C1125.96271,505.987099 1125.98747,507.399325 1126,508 C1126.83452,508.985078 1127.58031,509.060859 1128,509 L1129,509 L1129,509 L1130,509 L1130,509 L1130,509 C1130.04241,508.750881 1130.101,508.74507 1130,509 L1131,509 L1131,509 L1133,509 C1133.05436,508.610039 1133.34412,508.601115 1134,509 C1133.25879,506.884046 1133.58604,504.884298 1134,503 L1134,502 L1134,502 L1135,500 C1134.82854,499.767219 1134.98057,499.118812 1135,499 C1135.71552,495.083065 1136.19017,491.54281 1137,488 C1137.48233,480.822725 1137.87937,473.641914 1138,466 C1137.90145,459.234226 1139.22204,452.759441 1141,446 C1142.2856,441.47781 1143.97236,437.282617 1146,433 L1147,431 C1147.46246,428.882522 1148.25296,426.959639 1149,425 Z M1076,421 C1080.08077,421.61563 1083.9998,424.605646 1085,429 C1086.88805,432.783788 1085.54089,437.347789 1082,440 C1073.81529,444.219542 1063.3312,436.558275 1065,428 C1065.70513,425.516747 1067.07016,423.785336 1069,422 C1070.70506,421.219338 1072.80937,421.025679 1075,421 L1076,421 L1076,421 Z M1073,423 C1069.67393,423.692285 1066.60405,425.244808 1066,429 C1065.57535,432.634194 1067.91573,435.889049 1071,438 C1073.89806,439.317558 1077.79287,439.613548 1081,438 C1084.15057,435.560401 1084.8902,431.394768 1083,428 C1080.69139,424.479692 1076.98186,423.403293 1073,423 Z M1138,397 C1138.92029,397.537456 1138.88021,398.08722 1139,399 L1138,399 L1138,399 L1138,400 L1138,400 L1138,400 L1138,400 L1138,401 C1137.8113,401.286017 1137.56928,402.0463 1138,402 C1137.87595,402.715317 1138.40984,402.913556 1139,403 L1140,403 C1139.67929,403.24557 1139.76655,403.270227 1140,403 C1140.64661,403.572191 1141.45569,403.849807 1142,404 L1143,404 L1143,404 L1144,405 C1144.26839,405.091613 1144.70331,405.307912 1145,406 C1144.99797,405.724018 1145.05526,405.898072 1145,406 C1144.81235,406.486253 1144.65583,406.511128 1144,406 L1144,406 C1143.99333,406.328498 1143.96051,406.320605 1144,406 C1141.61349,405.820179 1139.31988,405.189423 1137,404 C1136.57635,405.581933 1136.06988,407.045154 1136,409 L1136,409 L1136,409 L1135,409 C1135.27439,409.497614 1135.08629,409.94817 1135,410 C1134.13834,410.065306 1134.03644,409.417748 1134,409 L1134,409 C1134.05533,408.675998 1134.0577,408.64619 1134,409 C1134.10173,408.150245 1134.26403,407.663434 1134,407 L1135,407 C1134.66997,406.542592 1134.70064,406.452679 1135,406 C1134.75776,406.274226 1134.79764,406.16932 1135,406 L1135,405 C1135.3118,404.934287 1135.54115,404.330804 1135,404 C1135.45618,403.696308 1135.34421,403.612085 1135,404 L1135,403 C1134.83255,403.439616 1134.79446,403.426393 1135,403 L1134,403 L1134,403 C1133.02241,402.762244 1132.52847,402.574758 1132,402 L1131,402 L1131,402 L1131,402 C1130.64272,401.79373 1130.35177,401.651958 1130,401 C1130.0616,401.2694 1129.89639,400.565318 1130,400 C1130.27593,400.169622 1130.94688,400.294996 1132,401 L1132,401 L1132,401 L1133,401 L1133,401 L1134,401 L1134,401 L1134,401 L1134,401 L1135,401 C1134.82019,401.521854 1135.01613,401.579576 1135,402 L1135,402 L1135,402 L1135,402 C1135.55615,401.900359 1135.62158,401.938417 1136,402 C1136.13077,401.965109 1136.30309,401.736871 1136,401 L1137,401 L1137,401 L1137,401 L1137,401 L1137,401 C1137.09658,399.552455 1137.62002,398.20214 1138,397 Z" id="illustration_02"></path>
        </g>
    </g>
</svg>